<svg width="32" height="32" viewBox="0 0 32 32" fill="none" xmlns="http://www.w3.org/2000/svg">
<g clip-path="url(#clip0_2_75)">
<path d="M5.33332 14.6667C6.04057 14.6667 6.71884 14.9476 7.21894 15.4477C7.71904 15.9478 7.99999 16.6261 7.99999 17.3333V18.6667H24V17.3333C24 16.6261 24.2809 15.9478 24.781 15.4477C25.2811 14.9476 25.9594 14.6667 26.6667 14.6667C27.3739 14.6667 28.0522 14.9476 28.5523 15.4477C29.0524 15.9478 29.3333 16.6261 29.3333 17.3333V24C29.3333 24.3536 29.1928 24.6928 28.9428 24.9428C28.6928 25.1928 28.3536 25.3333 28 25.3333H3.99999C3.64637 25.3333 3.30723 25.1928 3.05718 24.9428C2.80713 24.6928 2.66666 24.3536 2.66666 24V17.3333C2.66666 16.6261 2.94761 15.9478 3.4477 15.4477C3.9478 14.9476 4.62608 14.6667 5.33332 14.6667V14.6667Z" stroke="#281A51" stroke-width="2" stroke-linecap="round" stroke-linejoin="round"/>
<path d="M5.33334 14.6667V10.6667C5.33334 9.60579 5.75477 8.58838 6.50492 7.83823C7.25506 7.08808 8.27248 6.66666 9.33334 6.66666H22.6667C23.7275 6.66666 24.745 7.08808 25.4951 7.83823C26.2453 8.58838 26.6667 9.60579 26.6667 10.6667V14.6667" stroke="#281A51" stroke-width="2" stroke-linecap="round" stroke-linejoin="round"/>
<path d="M16 6.66666V18.6667" stroke="#281A51" stroke-width="2" stroke-linecap="round" stroke-linejoin="round"/>
</g>
<defs>
<clipPath id="clip0_2_75">
<rect width="32" height="32" fill="white"/>
</clipPath>
</defs>
</svg>
